{
    "asset" : {
        "generator" : "Khronos glTF Blender I/O v1.5.17",
        "version" : "2.0"
    },
    "scene" : 0,
    "scenes" : [
        {
            "name" : "Scene",
            "nodes" : [
                0,
                1,
                2,
                3,
                4,
                5,
                6
            ]
        }
    ],
    "nodes" : [
        {
            "name" : "Camera.001",
            "rotation" : [
                0.483536034822464,
                0.33687159419059753,
                -0.20870360732078552,
                0.7804827094078064
            ],
            "translation" : [
                7.447327136993408,
                5.3165411949157715,
                6.571693420410156
            ]
        },
        {
            "name" : "Lamp.001",
            "rotation" : [
                0.16907551884651184,
                0.7558804750442505,
                -0.2721710503101349,
                0.5709475874900818
            ],
            "translation" : [
                -0.03380430489778519,
                1.572876214981079,
                0.06405362486839294
            ]
        },
        {
            "mesh" : 0,
            "name" : "sunflower.001",
            "rotation" : [
                0.7071068286895752,
                0,
                0,
                0.7071067094802856
            ],
            "scale" : [
                0.30000001192092896,
                0.30000001192092896,
                0.30000001192092896
            ],
            "translation" : [
                -0.005153251811861992,
                0.38533174991607666,
                0.006465625017881393
            ]
        },
        {
            "name" : "Light",
            "rotation" : [
                0.16907575726509094,
                0.7558803558349609,
                -0.27217137813568115,
                0.570947527885437
            ],
            "translation" : [
                4.042440891265869,
                5.87673807144165,
                -0.9414002895355225
            ]
        },
        {
            "name" : "Camera.002",
            "rotation" : [
                0.483536034822464,
                0.33687159419059753,
                -0.20870360732078552,
                0.7804827094078064
            ],
            "translation" : [
                7.325087070465088,
                4.931185245513916,
                6.98984432220459
            ]
        },
        {
            "name" : "Lamp",
            "rotation" : [
                0.16907551884651184,
                0.7558804154396057,
                -0.2721710503101349,
                0.5709475874900818
            ],
            "translation" : [
                0,
                1.600000023841858,
                0
            ]
        },
        {
            "name" : "Camera",
            "rotation" : [
                0.483536034822464,
                0.33687159419059753,
                -0.20870360732078552,
                0.7804827094078064
            ],
            "translation" : [
                7.481131553649902,
                5.34366512298584,
                6.5076398849487305
            ]
        }
    ],
    "materials" : [
        {
            "name" : "None.001",
            "pbrMetallicRoughness" : {
                "baseColorTexture" : {
                    "index" : 0
                },
                "metallicFactor" : 0
            }
        }
    ],
    "meshes" : [
        {
            "name" : "sunflower.001",
            "primitives" : [
                {
                    "attributes" : {
                        "POSITION" : 0,
                        "NORMAL" : 1,
                        "TEXCOORD_0" : 2
                    },
                    "indices" : 3,
                    "material" : 0
                }
            ]
        }
    ],
    "textures" : [
        {
            "sampler" : 0,
            "source" : 0
        }
    ],
    "images" : [
        {
            "bufferView" : 4,
            "mimeType" : "image/png",
            "name" : "PUSHILIN_sunflower"
        }
    ],
    "accessors" : [
        {
            "bufferView" : 0,
            "componentType" : 5126,
            "count" : 892,
            "max" : [
                0.6084539890289307,
                0.45397499203681946,
                1.3026560544967651
            ],
            "min" : [
                -0.6065940260887146,
                -0.4599300026893616,
                -0.6320639848709106
            ],
            "type" : "VEC3"
        },
        {
            "bufferView" : 1,
            "componentType" : 5126,
            "count" : 892,
            "type" : "VEC3"
        },
        {
            "bufferView" : 2,
            "componentType" : 5126,
            "count" : 892,
            "type" : "VEC2"
        },
        {
            "bufferView" : 3,
            "componentType" : 5123,
            "count" : 1020,
            "type" : "SCALAR"
        }
    ],
    "bufferViews" : [
        {
            "buffer" : 0,
            "byteLength" : 10704,
            "byteOffset" : 0
        },
        {
            "buffer" : 0,
            "byteLength" : 10704,
            "byteOffset" : 10704
        },
        {
            "buffer" : 0,
            "byteLength" : 7136,
            "byteOffset" : 21408
        },
        {
            "buffer" : 0,
            "byteLength" : 2040,
            "byteOffset" : 28544
        },
        {
            "buffer" : 0,
            "byteLength" : 159079,
            "byteOffset" : 30584
        }
    ],
    "samplers" : [
        {
            "magFilter" : 9729,
            "minFilter" : 9987
        }
    ],
    "buffers" : [
        {
            "byteLength" : 189664,
            "uri" : "data:application/octet-stream;base64,"
        }
    ]
}
