{
    "asset" : {
        "generator" : "Khronos glTF Blender I/O v1.5.17",
        "version" : "2.0"
    },
    "scene" : 0,
    "scenes" : [
        {
            "name" : "Scene",
            "nodes" : [
                0,
                1,
                2,
                3,
                4,
                5,
                6
            ]
        }
    ],
    "nodes" : [
        {
            "mesh" : 0,
            "name" : "Cube.001",
            "scale" : [
                0.6018972396850586,
                1.0065580606460571,
                0.3986623287200928
            ],
            "translation" : [
                0,
                -0.007657489739358425,
                0
            ]
        },
        {
            "name" : "Light.001",
            "rotation" : [
                0.16907575726509094,
                0.7558803558349609,
                -0.27217137813568115,
                0.570947527885437
            ],
            "translation" : [
                4.076245307922363,
                5.903861999511719,
                -1.0054539442062378
            ]
        },
        {
            "name" : "Camera.001",
            "rotation" : [
                0.483536034822464,
                0.33687159419059753,
                -0.20870360732078552,
                0.7804827094078064
            ],
            "translation" : [
                7.358891487121582,
                4.958309173583984,
                6.925790786743164
            ]
        },
        {
            "mesh" : 1,
            "name" : "\u041a\u0443\u0431.001",
            "rotation" : [
                0,
                0,
                -0.32084763050079346,
                0.9471307992935181
            ],
            "scale" : [
                0.04741379991173744,
                0.16632521152496338,
                0.025927109643816948
            ],
            "translation" : [
                0.03739813342690468,
                0.13278517127037048,
                0
            ]
        },
        {
            "mesh" : 2,
            "name" : "\u041a\u0443\u0431",
            "rotation" : [
                0,
                0,
                -0.2870408594608307,
                0.9579183459281921
            ],
            "scale" : [
                -0.07206344604492188,
                -0.07206344604492188,
                -0.01638360694050789
            ],
            "translation" : [
                -0.06071940436959267,
                0.19410443305969238,
                0.002296044258400798
            ]
        },
        {
            "name" : "Light",
            "rotation" : [
                0.16907575726509094,
                0.7558803558349609,
                -0.27217137813568115,
                0.570947527885437
            ],
            "translation" : [
                4.076245307922363,
                5.903861999511719,
                -1.0054539442062378
            ]
        },
        {
            "name" : "Camera",
            "rotation" : [
                0.483536034822464,
                0.33687159419059753,
                -0.20870360732078552,
                0.7804827094078064
            ],
            "translation" : [
                7.358891487121582,
                4.958309173583984,
                6.925790786743164
            ]
        }
    ],
    "animations" : [
        {
            "channels" : [
                {
                    "sampler" : 0,
                    "target" : {
                        "node" : 4,
                        "path" : "translation"
                    }
                },
                {
                    "sampler" : 1,
                    "target" : {
                        "node" : 4,
                        "path" : "rotation"
                    }
                },
                {
                    "sampler" : 2,
                    "target" : {
                        "node" : 4,
                        "path" : "scale"
                    }
                }
            ],
            "name" : "\u041a\u0443\u0431Action",
            "samplers" : [
                {
                    "input" : 12,
                    "interpolation" : "LINEAR",
                    "output" : 13
                },
                {
                    "input" : 12,
                    "interpolation" : "LINEAR",
                    "output" : 14
                },
                {
                    "input" : 12,
                    "interpolation" : "LINEAR",
                    "output" : 15
                }
            ]
        }
    ],
    "materials" : [
        {
            "doubleSided" : true,
            "name" : "Material.001",
            "pbrMetallicRoughness" : {
                "baseColorTexture" : {
                    "index" : 0
                },
                "metallicFactor" : 0,
                "roughnessFactor" : 0.4000000059604645
            }
        },
        {
            "doubleSided" : true,
            "name" : "Material",
            "pbrMetallicRoughness" : {
                "baseColorTexture" : {
                    "index" : 1
                },
                "metallicFactor" : 0,
                "roughnessFactor" : 0.4000000059604645
            }
        },
        {
            "doubleSided" : true,
            "name" : "\u041c\u0430\u0442\u0435\u0440\u0438\u0430\u043b.001",
            "pbrMetallicRoughness" : {
                "baseColorTexture" : {
                    "index" : 2
                },
                "metallicFactor" : 0,
                "roughnessFactor" : 0.5
            }
        }
    ],
    "meshes" : [
        {
            "name" : "Cube.001",
            "primitives" : [
                {
                    "attributes" : {
                        "POSITION" : 0,
                        "NORMAL" : 1,
                        "TEXCOORD_0" : 2
                    },
                    "indices" : 3,
                    "material" : 0
                }
            ]
        },
        {
            "name" : "\u041a\u0443\u0431.001",
            "primitives" : [
                {
                    "attributes" : {
                        "POSITION" : 4,
                        "NORMAL" : 5,
                        "TEXCOORD_0" : 6
                    },
                    "indices" : 7,
                    "material" : 1
                }
            ]
        },
        {
            "name" : "\u041a\u0443\u0431.002",
            "primitives" : [
                {
                    "attributes" : {
                        "POSITION" : 8,
                        "NORMAL" : 9,
                        "TEXCOORD_0" : 10
                    },
                    "indices" : 11,
                    "material" : 2
                }
            ]
        }
    ],
    "textures" : [
        {
            "sampler" : 0,
            "source" : 0
        },
        {
            "sampler" : 0,
            "source" : 1
        },
        {
            "sampler" : 0,
            "source" : 2
        }
    ],
    "images" : [
        {
            "bufferView" : 4,
            "mimeType" : "image/png",
            "name" : "\u0411\u0435\u0437 \u0438\u043c\u0435\u043d\u0438"
        },
        {
            "bufferView" : 9,
            "mimeType" : "image/png",
            "name" : "cifr"
        },
        {
            "bufferView" : 14,
            "mimeType" : "image/png",
            "name" : "\u041c\u0430\u0442\u0435\u0440\u0438\u0430\u043b"
        }
    ],
    "accessors" : [
        {
            "bufferView" : 0,
            "componentType" : 5126,
            "count" : 24,
            "max" : [
                0.25,
                0.013059094548225403,
                0.25
            ],
            "min" : [
                -0.25,
                -0.013059094548225403,
                -0.25
            ],
            "type" : "VEC3"
        },
        {
            "bufferView" : 1,
            "componentType" : 5126,
            "count" : 24,
            "type" : "VEC3"
        },
        {
            "bufferView" : 2,
            "componentType" : 5126,
            "count" : 24,
            "type" : "VEC2"
        },
        {
            "bufferView" : 3,
            "componentType" : 5123,
            "count" : 36,
            "type" : "SCALAR"
        },
        {
            "bufferView" : 5,
            "componentType" : 5126,
            "count" : 118,
            "max" : [
                1,
                1.7023286819458008,
                1
            ],
            "min" : [
                -3.510638952255249,
                -1,
                -1
            ],
            "type" : "VEC3"
        },
        {
            "bufferView" : 6,
            "componentType" : 5126,
            "count" : 118,
            "type" : "VEC3"
        },
        {
            "bufferView" : 7,
            "componentType" : 5126,
            "count" : 118,
            "type" : "VEC2"
        },
        {
            "bufferView" : 8,
            "componentType" : 5123,
            "count" : 180,
            "type" : "SCALAR"
        },
        {
            "bufferView" : 10,
            "componentType" : 5126,
            "count" : 776,
            "max" : [
                1.4219940900802612,
                0.8907160758972168,
                1.1957502365112305
            ],
            "min" : [
                -1.0199240446090698,
                -1.4957863092422485,
                -1.022952914237976
            ],
            "type" : "VEC3"
        },
        {
            "bufferView" : 11,
            "componentType" : 5126,
            "count" : 776,
            "type" : "VEC3"
        },
        {
            "bufferView" : 12,
            "componentType" : 5126,
            "count" : 776,
            "type" : "VEC2"
        },
        {
            "bufferView" : 13,
            "componentType" : 5123,
            "count" : 804,
            "type" : "SCALAR"
        },
        {
            "bufferView" : 15,
            "componentType" : 5126,
            "count" : 89,
            "max" : [
                3.6666666666666665
            ],
            "min" : [
                0
            ],
            "type" : "SCALAR"
        },
        {
            "bufferView" : 16,
            "componentType" : 5126,
            "count" : 89,
            "type" : "VEC3"
        },
        {
            "bufferView" : 17,
            "componentType" : 5126,
            "count" : 89,
            "type" : "VEC4"
        },
        {
            "bufferView" : 18,
            "componentType" : 5126,
            "count" : 89,
            "type" : "VEC3"
        }
    ],
    "bufferViews" : [
        {
            "buffer" : 0,
            "byteLength" : 288,
            "byteOffset" : 0
        },
        {
            "buffer" : 0,
            "byteLength" : 288,
            "byteOffset" : 288
        },
        {
            "buffer" : 0,
            "byteLength" : 192,
            "byteOffset" : 576
        },
        {
            "buffer" : 0,
            "byteLength" : 72,
            "byteOffset" : 768
        },
        {
            "buffer" : 0,
            "byteLength" : 20567,
            "byteOffset" : 840
        },
        {
            "buffer" : 0,
            "byteLength" : 1416,
            "byteOffset" : 21408
        },
        {
            "buffer" : 0,
            "byteLength" : 1416,
            "byteOffset" : 22824
        },
        {
            "buffer" : 0,
            "byteLength" : 944,
            "byteOffset" : 24240
        },
        {
            "buffer" : 0,
            "byteLength" : 360,
            "byteOffset" : 25184
        },
        {
            "buffer" : 0,
            "byteLength" : 721044,
            "byteOffset" : 25544
        },
        {
            "buffer" : 0,
            "byteLength" : 9312,
            "byteOffset" : 746588
        },
        {
            "buffer" : 0,
            "byteLength" : 9312,
            "byteOffset" : 755900
        },
        {
            "buffer" : 0,
            "byteLength" : 6208,
            "byteOffset" : 765212
        },
        {
            "buffer" : 0,
            "byteLength" : 1608,
            "byteOffset" : 771420
        },
        {
            "buffer" : 0,
            "byteLength" : 31671,
            "byteOffset" : 773028
        },
        {
            "buffer" : 0,
            "byteLength" : 356,
            "byteOffset" : 804700
        },
        {
            "buffer" : 0,
            "byteLength" : 1068,
            "byteOffset" : 805056
        },
        {
            "buffer" : 0,
            "byteLength" : 1424,
            "byteOffset" : 806124
        },
        {
            "buffer" : 0,
            "byteLength" : 1068,
            "byteOffset" : 807548
        }
    ],
    "samplers" : [
        {
            "magFilter" : 9729,
            "minFilter" : 9987
        }
    ],
    "buffers" : [
        {
            "byteLength" : 808616,
            "uri" : "data:application/octet-stream;base64,"
        }
    ]
}
