{
    "asset" : {
        "generator" : "Khronos glTF Blender I/O v1.5.17",
        "version" : "2.0"
    },
    "extensionsUsed" : [
        "KHR_lights_punctual"
    ],
    "extensionsRequired" : [
        "KHR_lights_punctual"
    ],
    "extensions" : {
        "KHR_lights_punctual" : {
            "lights" : [
                {
                    "color" : [
                        1,
                        1,
                        1
                    ],
                    "intensity" : 1000,
                    "type" : "point",
                    "name" : "Light"
                },
                {
                    "color" : [
                        1,
                        1,
                        1
                    ],
                    "intensity" : 1,
                    "type" : "directional",
                    "name" : "\u0421\u043e\u043b\u043d\u0446\u0435"
                }
            ]
        }
    },
    "scene" : 0,
    "scenes" : [
        {
            "name" : "Scene",
            "nodes" : [
                0,
                1,
                2,
                3,
                4,
                6,
                8,
                10,
                11
            ]
        }
    ],
    "nodes" : [
        {
            "mesh" : 0,
            "name" : "pogstavka"
        },
        {
            "name" : "Light.001",
            "rotation" : [
                0.16907575726509094,
                0.7558803558349609,
                -0.27217137813568115,
                0.570947527885437
            ],
            "translation" : [
                -0.33924293518066406,
                1.0080711841583252,
                1.9648833274841309
            ]
        },
        {
            "name" : "Camera.001",
            "rotation" : [
                0.483536034822464,
                0.33687159419059753,
                -0.20870360732078552,
                0.7804827094078064
            ],
            "translation" : [
                7.358891487121582,
                4.958309173583984,
                6.925790786743164
            ]
        },
        {
            "mesh" : 1,
            "name" : "galochka"
        },
        {
            "mesh" : 2,
            "name" : "serdechko"
        },
        {
            "extensions" : {
                "KHR_lights_punctual" : {
                    "light" : 0
                }
            },
            "name" : "Light_Orientation",
            "rotation" : [
                -0.7071067690849304,
                0,
                0,
                0.7071067690849304
            ]
        },
        {
            "children" : [
                5
            ],
            "name" : "Light",
            "rotation" : [
                0.16907575726509094,
                0.7558803558349609,
                -0.27217137813568115,
                0.570947527885437
            ],
            "translation" : [
                -0.43145519495010376,
                1.20401132106781,
                1.1769181489944458
            ]
        },
        {
            "camera" : 0,
            "name" : "Camera_Orientation",
            "rotation" : [
                -0.7071067690849304,
                0,
                0,
                0.7071067690849304
            ]
        },
        {
            "children" : [
                7
            ],
            "name" : "Camera",
            "rotation" : [
                0.1504436433315277,
                0.7580683827400208,
                -0.5956271886825562,
                0.21892301738262177
            ],
            "translation" : [
                1.2178897857666016,
                1.1920673847198486,
                -2.946817398071289
            ]
        },
        {
            "extensions" : {
                "KHR_lights_punctual" : {
                    "light" : 1
                }
            },
            "name" : "\u0421\u043e\u043b\u043d\u0446\u0435_Orientation",
            "rotation" : [
                -0.7071067690849304,
                0,
                0,
                0.7071067690849304
            ]
        },
        {
            "children" : [
                9
            ],
            "name" : "\u0421\u043e\u043b\u043d\u0446\u0435",
            "rotation" : [
                0,
                -0.9997671842575073,
                0,
                -0.02158145047724247
            ],
            "scale" : [
                2.0504772663116455,
                2.0504772663116455,
                2.0504772663116455
            ],
            "translation" : [
                0.023953378200531006,
                2.692401647567749,
                0.0012340869288891554
            ]
        },
        {
            "name" : "\u0418\u0441\u0442\u043e\u0447\u043d\u0438\u043a-\u043e\u0431\u043b\u0430\u0441\u0442\u044c",
            "rotation" : [
                -0.4056350290775299,
                0.00812261737883091,
                0.01386087853461504,
                0.9138939380645752
            ],
            "translation" : [
                0.020900359377264977,
                0.9767906069755554,
                -0.9903321862220764
            ]
        }
    ],
    "cameras" : [
        {
            "name" : "Camera",
            "perspective" : {
                "aspectRatio" : 1.7777777777777777,
                "yfov" : 0.39959652046304894,
                "zfar" : 100,
                "znear" : 0.10000000149011612
            },
            "type" : "perspective"
        }
    ],
    "materials" : [
        {
            "doubleSided" : true,
            "name" : "Material.001",
            "pbrMetallicRoughness" : {
                "baseColorTexture" : {
                    "index" : 0
                },
                "metallicFactor" : 0,
                "roughnessFactor" : 0.4000000059604645
            }
        },
        {
            "doubleSided" : true,
            "name" : "Material",
            "pbrMetallicRoughness" : {
                "baseColorTexture" : {
                    "index" : 1
                },
                "metallicFactor" : 0,
                "roughnessFactor" : 0.4000000059604645
            }
        },
        {
            "doubleSided" : true,
            "name" : "materialserd",
            "pbrMetallicRoughness" : {
                "baseColorTexture" : {
                    "index" : 2
                },
                "metallicFactor" : 0,
                "roughnessFactor" : 0.5
            }
        }
    ],
    "meshes" : [
        {
            "name" : "Cube.001",
            "primitives" : [
                {
                    "attributes" : {
                        "POSITION" : 0,
                        "NORMAL" : 1,
                        "TEXCOORD_0" : 2
                    },
                    "indices" : 3,
                    "material" : 0
                }
            ]
        },
        {
            "name" : "\u041a\u0443\u0431.001",
            "primitives" : [
                {
                    "attributes" : {
                        "POSITION" : 4,
                        "NORMAL" : 5,
                        "TEXCOORD_0" : 6
                    },
                    "indices" : 7,
                    "material" : 1
                }
            ]
        },
        {
            "name" : "\u041a\u0443\u0431.002",
            "primitives" : [
                {
                    "attributes" : {
                        "POSITION" : 8,
                        "NORMAL" : 9,
                        "TEXCOORD_0" : 10
                    },
                    "indices" : 11,
                    "material" : 2
                }
            ]
        }
    ],
    "textures" : [
        {
            "sampler" : 0,
            "source" : 0
        },
        {
            "sampler" : 0,
            "source" : 1
        },
        {
            "sampler" : 0,
            "source" : 2
        }
    ],
    "images" : [
        {
            "mimeType" : "image/png",
            "name" : "pogstavka",
            "uri" : "pogstavka.png"
        },
        {
            "mimeType" : "image/png",
            "name" : "cifr",
            "uri" : "cifr.png"
        },
        {
            "mimeType" : "image/png",
            "name" : "serdechkopaint",
            "uri" : "serdechkopaint.png"
        }
    ],
    "accessors" : [
        {
            "bufferView" : 0,
            "componentType" : 5126,
            "count" : 32,
            "max" : [
                0.34102895855903625,
                0.051034215837717056,
                0.2187202274799347
            ],
            "min" : [
                -0.29312217235565186,
                -0.0028717531822621822,
                -0.21625204384326935
            ],
            "type" : "VEC3"
        },
        {
            "bufferView" : 1,
            "componentType" : 5126,
            "count" : 32,
            "type" : "VEC3"
        },
        {
            "bufferView" : 2,
            "componentType" : 5126,
            "count" : 32,
            "type" : "VEC2"
        },
        {
            "bufferView" : 3,
            "componentType" : 5123,
            "count" : 36,
            "type" : "SCALAR"
        },
        {
            "bufferView" : 4,
            "componentType" : 5126,
            "count" : 172,
            "max" : [
                0.427503764629364,
                0.8321841359138489,
                0.07167892903089523
            ],
            "min" : [
                -0.4846113920211792,
                0.00510876951739192,
                -0.07374662160873413
            ],
            "type" : "VEC3"
        },
        {
            "bufferView" : 5,
            "componentType" : 5126,
            "count" : 172,
            "type" : "VEC3"
        },
        {
            "bufferView" : 6,
            "componentType" : 5126,
            "count" : 172,
            "type" : "VEC2"
        },
        {
            "bufferView" : 7,
            "componentType" : 5123,
            "count" : 180,
            "type" : "SCALAR"
        },
        {
            "bufferView" : 8,
            "componentType" : 5126,
            "count" : 776,
            "max" : [
                0.35535216331481934,
                0.6181288361549377,
                0.05089907720685005
            ],
            "min" : [
                -0.06257357448339462,
                0.2572454810142517,
                -0.04147423431277275
            ],
            "type" : "VEC3"
        },
        {
            "bufferView" : 9,
            "componentType" : 5126,
            "count" : 776,
            "type" : "VEC3"
        },
        {
            "bufferView" : 10,
            "componentType" : 5126,
            "count" : 776,
            "type" : "VEC2"
        },
        {
            "bufferView" : 11,
            "componentType" : 5123,
            "count" : 804,
            "type" : "SCALAR"
        }
    ],
    "bufferViews" : [
        {
            "buffer" : 0,
            "byteLength" : 384,
            "byteOffset" : 0
        },
        {
            "buffer" : 0,
            "byteLength" : 384,
            "byteOffset" : 384
        },
        {
            "buffer" : 0,
            "byteLength" : 256,
            "byteOffset" : 768
        },
        {
            "buffer" : 0,
            "byteLength" : 72,
            "byteOffset" : 1024
        },
        {
            "buffer" : 0,
            "byteLength" : 2064,
            "byteOffset" : 1096
        },
        {
            "buffer" : 0,
            "byteLength" : 2064,
            "byteOffset" : 3160
        },
        {
            "buffer" : 0,
            "byteLength" : 1376,
            "byteOffset" : 5224
        },
        {
            "buffer" : 0,
            "byteLength" : 360,
            "byteOffset" : 6600
        },
        {
            "buffer" : 0,
            "byteLength" : 9312,
            "byteOffset" : 6960
        },
        {
            "buffer" : 0,
            "byteLength" : 9312,
            "byteOffset" : 16272
        },
        {
            "buffer" : 0,
            "byteLength" : 6208,
            "byteOffset" : 25584
        },
        {
            "buffer" : 0,
            "byteLength" : 1608,
            "byteOffset" : 31792
        }
    ],
    "samplers" : [
        {
            "magFilter" : 9729,
            "minFilter" : 9987
        }
    ],
    "buffers" : [
        {
            "byteLength" : 33400,
            "uri" : "sunflower.bin"
        }
    ]
}
