{
    "asset" : {
        "generator" : "Khronos glTF Blender I/O v1.5.17",
        "version" : "2.0"
    },
    "extensionsUsed" : [
        "KHR_lights_punctual"
    ],
    "extensionsRequired" : [
        "KHR_lights_punctual"
    ],
    "extensions" : {
        "KHR_lights_punctual" : {
            "lights" : [
                {
                    "color" : [
                        1,
                        1,
                        1
                    ],
                    "intensity" : 1000,
                    "type" : "point",
                    "name" : "Light.001"
                },
                {
                    "color" : [
                        1,
                        1,
                        1
                    ],
                    "intensity" : 1000,
                    "type" : "point",
                    "name" : "Light"
                },
                {
                    "color" : [
                        1,
                        1,
                        1
                    ],
                    "intensity" : 10,
                    "type" : "point",
                    "name" : "\u0422\u043e\u0447\u0435\u0447\u043d\u044b\u0439 \u0438\u0441\u0442\u043e\u0447\u043d\u0438\u043a"
                }
            ]
        }
    },
    "scene" : 0,
    "scenes" : [
        {
            "name" : "Scene",
            "nodes" : [
                0,
                1,
                2,
                3,
                4,
                7,
                9,
                10,
                11,
                12,
                14,
                15,
                16,
                18
            ]
        }
    ],
    "nodes" : [
        {
            "mesh" : 0,
            "name" : "pogstavka",
            "scale" : [
                2.542119026184082,
                4.251208305358887,
                1.6837542057037354
            ],
            "translation" : [
                0.3534665107727051,
                -0.21973609924316406,
                -0.03173637390136719
            ]
        },
        {
            "name" : "Light.001",
            "rotation" : [
                0.16907575726509094,
                0.7558803558349609,
                -0.27217137813568115,
                0.570947527885437
            ],
            "scale" : [
                4.223509788513184,
                4.223510265350342,
                4.223509311676025
            ],
            "translation" : [
                3.2753853797912598,
                8.828449249267578,
                7.6719651222229
            ]
        },
        {
            "name" : "Camera.001",
            "rotation" : [
                0.483536034822464,
                0.33687159419059753,
                -0.20870360732078552,
                0.7804827094078064
            ],
            "scale" : [
                4.223509788513184,
                4.223509788513184,
                4.223509788513184
            ],
            "translation" : [
                31.433815002441406,
                20.754074096679688,
                29.219409942626953
            ]
        },
        {
            "mesh" : 1,
            "name" : "galochka",
            "rotation" : [
                0,
                0,
                -0.32084766030311584,
                0.9471309185028076
            ],
            "scale" : [
                0.2002526819705963,
                0.7024762034416199,
                0.10950339585542679
            ],
            "translation" : [
                0.5114169120788574,
                0.3734250068664551,
                -0.03173637390136719
            ]
        },
        {
            "mesh" : 2,
            "name" : "serdechko",
            "rotation" : [
                0,
                0,
                -0.2870408594608307,
                0.9579183459281921
            ],
            "scale" : [
                -0.30436068773269653,
                -0.30436068773269653,
                -0.06919632107019424
            ],
            "translation" : [
                0.09701728820800781,
                0.6324076652526855,
                -0.022038936614990234
            ]
        },
        {
            "extensions" : {
                "KHR_lights_punctual" : {
                    "light" : 0
                }
            },
            "name" : "Light_Orientation_Orientation",
            "rotation" : [
                -0.7071067690849304,
                0,
                0,
                0.7071067690849304
            ]
        },
        {
            "children" : [
                5
            ],
            "name" : "Light_Orientation"
        },
        {
            "children" : [
                6
            ],
            "name" : "Light.002",
            "rotation" : [
                0.16907575726509094,
                0.7558803558349609,
                -0.27217137813568115,
                0.570947527885437
            ],
            "scale" : [
                4.223509788513184,
                4.223510265350342,
                4.223509311676025
            ],
            "translation" : [
                3.2753853797912598,
                8.828449249267578,
                7.6719651222229
            ]
        },
        {
            "name" : "Camera_Orientation",
            "translation" : [
                0.2901182770729065,
                -3.3040852546691895,
                0.031083866953849792
            ]
        },
        {
            "children" : [
                8
            ],
            "name" : "Camera.002",
            "rotation" : [
                0.483536034822464,
                0.33687159419059753,
                -0.20870360732078552,
                0.7804827094078064
            ],
            "scale" : [
                4.223509788513184,
                4.223509788513184,
                4.223509788513184
            ],
            "translation" : [
                13.539234161376953,
                9.982307434082031,
                14.597522735595703
            ]
        },
        {
            "name" : "Lamp.001",
            "rotation" : [
                0.16907551884651184,
                0.7558804750442505,
                -0.2721710503101349,
                0.5709475874900818
            ],
            "scale" : [
                4.223509788513184,
                4.223509788513184,
                4.2235107421875
            ],
            "translation" : [
                0.2106928825378418,
                4.609796524047852,
                3.8590900897979736
            ]
        },
        {
            "name" : "Lamp.002",
            "rotation" : [
                0.16907551884651184,
                0.7558804750442505,
                -0.2721710503101349,
                0.5709475874900818
            ],
            "scale" : [
                4.223509788513184,
                4.223509788513184,
                4.2235107421875
            ],
            "translation" : [
                0.65777587890625,
                2.6523008346557617,
                5.007232189178467
            ]
        },
        {
            "name" : "Lamp.003",
            "rotation" : [
                0.16907551884651184,
                0.7558804750442505,
                -0.2721710503101349,
                0.5709475874900818
            ],
            "scale" : [
                4.223509788513184,
                4.223509788513184,
                4.2235107421875
            ],
            "translation" : [
                -1.263953685760498,
                1.6285836696624756,
                4.165688514709473
            ]
        },
        {
            "extensions" : {
                "KHR_lights_punctual" : {
                    "light" : 1
                }
            },
            "name" : "Light_Orientation",
            "rotation" : [
                -0.7071067690849304,
                0,
                0,
                0.7071067690849304
            ]
        },
        {
            "children" : [
                13
            ],
            "name" : "Light",
            "rotation" : [
                0.5856706500053406,
                0.6740408539772034,
                -0.035762280225753784,
                0.44875389337539673
            ],
            "scale" : [
                4.223509788513184,
                4.223509788513184,
                4.223511219024658
            ],
            "translation" : [
                6.758611679077148,
                3.361499786376953,
                11.81863784790039
            ]
        },
        {
            "name" : "Camera",
            "rotation" : [
                0.483536034822464,
                0.33687159419059753,
                -0.20870360732078552,
                0.7804827094078064
            ],
            "scale" : [
                4.223509788513184,
                4.223509788513184,
                4.223509788513184
            ],
            "translation" : [
                31.433815002441406,
                20.754074096679688,
                29.219409942626953
            ]
        },
        {
            "name" : "\u0418\u0441\u0442\u043e\u0447\u043d\u0438\u043a-\u043e\u0431\u043b\u0430\u0441\u0442\u044c",
            "rotation" : [
                0.4103846251964569,
                -0.01907060667872429,
                -0.09262389689683914,
                0.9069958925247192
            ],
            "scale" : [
                0.8508592844009399,
                0.8508592844009399,
                0.8508593440055847
            ],
            "translation" : [
                0.6758532524108887,
                1.3455657958984375,
                1.5554742813110352
            ]
        },
        {
            "extensions" : {
                "KHR_lights_punctual" : {
                    "light" : 2
                }
            },
            "name" : "\u0422\u043e\u0447\u0435\u0447\u043d\u044b\u0439 \u0438\u0441\u0442\u043e\u0447\u043d\u0438\u043a_Orientation",
            "rotation" : [
                -0.7071067690849304,
                0,
                0,
                0.7071067690849304
            ]
        },
        {
            "children" : [
                17
            ],
            "name" : "\u0422\u043e\u0447\u0435\u0447\u043d\u044b\u0439 \u0438\u0441\u0442\u043e\u0447\u043d\u0438\u043a",
            "translation" : [
                0,
                0.9461994767189026,
                2.088264226913452
            ]
        }
    ],
    "materials" : [
        {
            "doubleSided" : true,
            "name" : "Material.001",
            "pbrMetallicRoughness" : {
                "baseColorTexture" : {
                    "index" : 0
                },
                "metallicFactor" : 0
            }
        },
        {
            "doubleSided" : true,
            "name" : "materialcifr",
            "pbrMetallicRoughness" : {
                "baseColorTexture" : {
                    "index" : 1
                },
                "metallicFactor" : 0
            }
        },
        {
            "doubleSided" : true,
            "name" : "materialserd",
            "pbrMetallicRoughness" : {
                "baseColorTexture" : {
                    "index" : 2
                },
                "metallicFactor" : 0
            }
        }
    ],
    "meshes" : [
        {
            "name" : "Cube.001",
            "primitives" : [
                {
                    "attributes" : {
                        "POSITION" : 0,
                        "NORMAL" : 1,
                        "TEXCOORD_0" : 2
                    },
                    "indices" : 3,
                    "material" : 0
                }
            ]
        },
        {
            "name" : "\u041a\u0443\u0431.001",
            "primitives" : [
                {
                    "attributes" : {
                        "POSITION" : 4,
                        "NORMAL" : 5,
                        "TEXCOORD_0" : 6
                    },
                    "indices" : 7,
                    "material" : 1
                }
            ]
        },
        {
            "name" : "\u041a\u0443\u0431.002",
            "primitives" : [
                {
                    "attributes" : {
                        "POSITION" : 8,
                        "NORMAL" : 9,
                        "TEXCOORD_0" : 10
                    },
                    "indices" : 11,
                    "material" : 2
                }
            ]
        }
    ],
    "textures" : [
        {
            "sampler" : 0,
            "source" : 0
        },
        {
            "sampler" : 0,
            "source" : 1
        },
        {
            "sampler" : 0,
            "source" : 2
        }
    ],
    "images" : [
        {
            "mimeType" : "image/png",
            "name" : "pogstavka",
            "uri" : "pogstavka.png"
        },
        {
            "mimeType" : "image/png",
            "name" : "serdechkopaint",
            "uri" : "serdechkopaint.png"
        },
        {
            "mimeType" : "image/png",
            "name" : "serdechkopaint-1",
            "uri" : "serdechkopaint-1.png"
        }
    ],
    "accessors" : [
        {
            "bufferView" : 0,
            "componentType" : 5126,
            "count" : 24,
            "max" : [
                0.25,
                0.013059094548225403,
                0.25
            ],
            "min" : [
                -0.25,
                -0.013059094548225403,
                -0.25
            ],
            "type" : "VEC3"
        },
        {
            "bufferView" : 1,
            "componentType" : 5126,
            "count" : 24,
            "type" : "VEC3"
        },
        {
            "bufferView" : 2,
            "componentType" : 5126,
            "count" : 24,
            "type" : "VEC2"
        },
        {
            "bufferView" : 3,
            "componentType" : 5123,
            "count" : 36,
            "type" : "SCALAR"
        },
        {
            "bufferView" : 4,
            "componentType" : 5126,
            "count" : 123,
            "max" : [
                1,
                1.7023286819458008,
                1
            ],
            "min" : [
                -3.510638952255249,
                -1,
                -1
            ],
            "type" : "VEC3"
        },
        {
            "bufferView" : 5,
            "componentType" : 5126,
            "count" : 123,
            "type" : "VEC3"
        },
        {
            "bufferView" : 6,
            "componentType" : 5126,
            "count" : 123,
            "type" : "VEC2"
        },
        {
            "bufferView" : 7,
            "componentType" : 5123,
            "count" : 180,
            "type" : "SCALAR"
        },
        {
            "bufferView" : 8,
            "componentType" : 5126,
            "count" : 776,
            "max" : [
                1.4219940900802612,
                0.8907160758972168,
                1.1957502365112305
            ],
            "min" : [
                -1.0199240446090698,
                -1.4957863092422485,
                -1.022952914237976
            ],
            "type" : "VEC3"
        },
        {
            "bufferView" : 9,
            "componentType" : 5126,
            "count" : 776,
            "type" : "VEC3"
        },
        {
            "bufferView" : 10,
            "componentType" : 5126,
            "count" : 776,
            "type" : "VEC2"
        },
        {
            "bufferView" : 11,
            "componentType" : 5123,
            "count" : 804,
            "type" : "SCALAR"
        }
    ],
    "bufferViews" : [
        {
            "buffer" : 0,
            "byteLength" : 288,
            "byteOffset" : 0
        },
        {
            "buffer" : 0,
            "byteLength" : 288,
            "byteOffset" : 288
        },
        {
            "buffer" : 0,
            "byteLength" : 192,
            "byteOffset" : 576
        },
        {
            "buffer" : 0,
            "byteLength" : 72,
            "byteOffset" : 768
        },
        {
            "buffer" : 0,
            "byteLength" : 1476,
            "byteOffset" : 840
        },
        {
            "buffer" : 0,
            "byteLength" : 1476,
            "byteOffset" : 2316
        },
        {
            "buffer" : 0,
            "byteLength" : 984,
            "byteOffset" : 3792
        },
        {
            "buffer" : 0,
            "byteLength" : 360,
            "byteOffset" : 4776
        },
        {
            "buffer" : 0,
            "byteLength" : 9312,
            "byteOffset" : 5136
        },
        {
            "buffer" : 0,
            "byteLength" : 9312,
            "byteOffset" : 14448
        },
        {
            "buffer" : 0,
            "byteLength" : 6208,
            "byteOffset" : 23760
        },
        {
            "buffer" : 0,
            "byteLength" : 1608,
            "byteOffset" : 29968
        }
    ],
    "samplers" : [
        {
            "magFilter" : 9729,
            "minFilter" : 9987
        }
    ],
    "buffers" : [
        {
            "byteLength" : 31576,
            "uri" : "sunflower.bin"
        }
    ]
}
